<svg xmlns="http://www.w3.org/2000/svg" viewBox="0 0 1699.47 473.66"><defs><style>.a,.b{fill:#49e534;}.b{font-size:23.98px;font-family:Roboto-Black, Roboto;}.c,.d{fill:none;stroke-miterlimit:10;}.c{stroke:#87bba2;stroke-width:8px;}.d{stroke:#a2f9e1;stroke-width:8.2px;}</style></defs><title>data</title><rect class="a" x="23.92" y="355.42" width="4.1" height="34.15"/><text class="b" transform="translate(0 421.33)">1 am</text><path class="a" d="M79.93,184.65h0a31.42,31.42,0,0,1,31.42,31.42v173.5a0,0,0,0,1,0,0H48.51a0,0,0,0,1,0,0V216.07A31.42,31.42,0,0,1,79.93,184.65Z"/><path class="a" d="M189.22,27.54h0A31.42,31.42,0,0,1,220.64,59V388.21a0,0,0,0,1,0,0H157.8a0,0,0,0,1,0,0V59a31.42,31.42,0,0,1,31.42-31.42Z"/><path class="a" d="M302.61,125.9h0A31.42,31.42,0,0,1,334,157.32V389.57a0,0,0,0,1,0,0H271.19a0,0,0,0,1,0,0V157.32A31.42,31.42,0,0,1,302.61,125.9Z"/><path class="a" d="M435.13,184.65h0a31.42,31.42,0,0,1,31.42,31.42v173.5a0,0,0,0,1,0,0H403.71a0,0,0,0,1,0,0V216.07a31.42,31.42,0,0,1,31.42-31.42Z"/><path class="a" d="M562.18,27.54h0A31.42,31.42,0,0,1,593.6,59V388.21a0,0,0,0,1,0,0H530.76a0,0,0,0,1,0,0V59a31.42,31.42,0,0,1,31.42-31.42Z"/><path class="a" d="M689.24,125.9h0a31.42,31.42,0,0,1,31.42,31.42V389.57a0,0,0,0,1,0,0H657.81a0,0,0,0,1,0,0V157.32a31.42,31.42,0,0,1,31.42-31.42Z"/><path class="a" d="M820.39,184.65h0a31.42,31.42,0,0,1,31.42,31.42v173.5a0,0,0,0,1,0,0H789a0,0,0,0,1,0,0V216.07A31.42,31.42,0,0,1,820.39,184.65Z"/><path class="a" d="M944.71,27.54h0A31.42,31.42,0,0,1,976.13,59V388.21a0,0,0,0,1,0,0H913.29a0,0,0,0,1,0,0V59a31.42,31.42,0,0,1,31.42-31.42Z"/><path class="a" d="M1058.1,125.9h0a31.42,31.42,0,0,1,31.42,31.42V389.57a0,0,0,0,1,0,0h-62.84a0,0,0,0,1,0,0V157.32a31.42,31.42,0,0,1,31.42-31.42Z"/><path class="a" d="M1172.86,183.28h0a31.42,31.42,0,0,1,31.42,31.42v173.5a0,0,0,0,1,0,0h-62.84a0,0,0,0,1,0,0V214.7A31.42,31.42,0,0,1,1172.86,183.28Z"/><path class="a" d="M1347.73,26.17h0a31.42,31.42,0,0,1,31.42,31.42V386.84a0,0,0,0,1,0,0H1316.3a0,0,0,0,1,0,0V57.59a31.42,31.42,0,0,1,31.42-31.42Z"/><path class="a" d="M1472,124.54h0A31.42,31.42,0,0,1,1503.47,156V388.21a0,0,0,0,1,0,0h-62.84a0,0,0,0,1,0,0V156A31.42,31.42,0,0,1,1472,124.54Z"/><path class="a" d="M1621,27.54h0A31.42,31.42,0,0,1,1652.38,59V388.21a0,0,0,0,1,0,0h-62.84a0,0,0,0,1,0,0V59A31.42,31.42,0,0,1,1621,27.54Z"/><polyline class="c" points="23.92 223.58 354.53 223.58 638.69 149.81 1000.72 106.09 1293.08 178.5 1676.97 194.89"/><line class="a" x1="23.92" y1="389.57" x2="1676.97" y2="389.57"/><rect class="a" x="350.43" y="355.42" width="4.1" height="34.15"/><rect class="a" x="630.49" y="358.15" width="4.1" height="34.15"/><rect class="a" x="995.26" y="355.42" width="4.1" height="34.15"/><rect class="a" x="1287.61" y="356.78" width="4.1" height="34.15"/><rect class="a" x="1672.87" y="354.73" width="4.1" height="34.15"/><text x="-169" y="-213.89"></text><text class="b" transform="translate(323.78 421.33)">1 am</text><text class="b" transform="translate(603.84 421.33)">1 am</text><text class="b" transform="translate(968.61 421.33)">1 am</text><text class="b" transform="translate(1265.07 421.33)">1 am</text><text class="b" transform="translate(1646.22 421.33)">1 am</text><path class="d" d="M186.09,472.31S483.91,297.44,806.32,316.57c0,0,204.93,2.73,409.85-68.31s92.9-16.39,235,157.11,163.94,26,385.26,66.94" transform="translate(-169 -213.89)"/></svg>