<svg xmlns="http://www.w3.org/2000/svg" viewBox="0 0 761.31 576.73"><defs><style>.a{fill:#fff;}.b{fill:#87bba2;}</style></defs><title>map</title><path class="a" d="M494.87,257.7s58.23,29.16,65.87,25.82S602,280.69,602,280.69L638.55,295l35.66-15.57,48.39-21.13,16.69,38.2,29.41,32.65L762.64,350l17.8,40.75,12.74-5.56,29.59,5.27,23.86,19.91,17.8,40.75,1.93-37.24,13.38-18L981.22,586.65l26.64,26.27,15.29-6.67,17.82-7.79,5.57,12.74,12.73-5.56,20.38-8.9,23.39,5,12.73-5.56,12.74-5.57,21.65-9.45,10,22.92-16.09,22.19-12.74,5.56,2.7,20.06-17.83,7.78,2.69,20.06-17.83,7.78-7.64,3.34s-21.17.15-25.47,11.12-11-4.3-7.64,3.34-1.29,24.82-1.29,24.82l-12.74,5.57s-48.21-6.24-17.83,7.78l30.39,14L1069,753s-12.09-6.85-25.47,11.12-17.83,7.79-17.83,7.79-6.06,20.84-12.59,26.72-21.65,9.46-21.65,9.46l-8.21,26.33-20-11L957,802l-12.56-21.81,6.06-20.85,9.89-22.51s-.31-18.06-10-22.92-3.34-7.64-3.34-7.64l-7.79-17.83-7.78-17.83-22.44.7L902.32,656s-4.77-4-13.84,3-24.36,13.67-24.36,13.67a39.19,39.19,0,0,1-13.2-9.39c-5.89-6.53-8.43-5.42-12.33-14.33s-23.78-9.33-23.78-9.33l-6.68-15.28C788.89,611.5,775,614.52,775,614.52l-17.51,1.58L733,608.6h0l-22.92,10-27.23,21-13.38,18s-3.19,13.52-13.38,18h0l-39.64,20.34s-18.62-1-29.6-5.27-23.39-5-31-1.61-26.58,8.58-26.58,8.58,11.77,13-17.83,7.78-32.93-12.91-32.93-12.91l-11.68-26.74-8.34-19.11s-27.37-.17-31.82-10.36l-4.45-10.19h0L410,598l-3.34-7.64-7.78-17.83,8.28-15.75-.93-29.92S461.76,272.16,494.87,257.7Z" transform="translate(-398.86 -257.7)"/><path class="b" d="M633.33,411.59l9.14-4,11.1-4.85c2.52-1.1,4.28.23,3.92,2.95L656,417l-1.31,9.89-1.49,11.28c-.36,2.72-2.49,3.65-4.73,2.07l-9.3-6.57L631,427.89l-9.29-6.57c-2.24-1.59-2-3.78.5-4.88Z" transform="translate(-398.86 -257.7)"/><circle class="b" cx="239.33" cy="151.77" r="19.44"/><circle class="a" cx="239.33" cy="151.77" r="9.33"/><path class="b" d="M997.86,739.07l9.14-4,11.1-4.85c2.51-1.09,4.28.23,3.92,2.95l-1.5,11.29-1.31,9.88-1.5,11.29c-.36,2.71-2.49,3.64-4.72,2.06l-9.3-6.57-8.14-5.76-9.29-6.57c-2.24-1.59-2-3.78.49-4.88Z" transform="translate(-398.86 -257.7)"/><circle class="b" cx="603.85" cy="479.26" r="19.44"/><circle class="a" cx="603.85" cy="479.26" r="9.33"/><path class="b" d="M999.26,694.81l9.14-4,11.1-4.85c2.52-1.09,4.28.23,3.92,2.95l-1.5,11.28-1.31,9.89-1.49,11.29c-.36,2.71-2.49,3.64-4.73,2.06l-9.29-6.57L997,711.11l-9.29-6.57c-2.24-1.59-2-3.78.5-4.88Z" transform="translate(-398.86 -257.7)"/><circle class="b" cx="605.26" cy="435" r="19.44"/><circle class="a" cx="605.26" cy="435" r="9.33"/><path class="b" d="M598.36,481.42l9.13-4,11.11-4.85c2.51-1.09,4.27.23,3.91,2.95L621,486.82l-1.31,9.88L618.21,508c-.36,2.72-2.49,3.64-4.73,2.06l-9.29-6.57-8.14-5.76-9.3-6.57c-2.24-1.58-2-3.78.5-4.88Z" transform="translate(-398.86 -257.7)"/><circle class="b" cx="204.35" cy="221.61" r="19.44"/><circle class="a" cx="204.35" cy="221.61" r="9.33"/><path class="b" d="M1053.73,672.12l9.14-4,11.1-4.85c2.52-1.1,4.28.23,3.92,2.94l-1.5,11.29-1.31,9.89-1.49,11.28c-.37,2.72-2.49,3.65-4.73,2.06l-9.3-6.57-8.14-5.76-9.29-6.57c-2.24-1.58-2-3.78.5-4.87Z" transform="translate(-398.86 -257.7)"/><circle class="b" cx="659.73" cy="412.3" r="19.44"/><circle class="a" cx="659.73" cy="412.3" r="9.33"/><path class="b" d="M840.72,591.64l9.14-4L861,582.8c2.52-1.1,4.28.23,3.92,3L863.38,597l-1.31,9.89-1.49,11.28c-.37,2.72-2.49,3.65-4.73,2.07l-9.3-6.58-8.14-5.75-9.29-6.58c-2.24-1.58-2-3.77.5-4.87Z" transform="translate(-398.86 -257.7)"/><circle class="b" cx="446.72" cy="331.82" r="19.44"/><circle class="a" cx="446.72" cy="331.82" r="9.33"/><path class="b" d="M866.84,494l9.14-4,11.1-4.85c2.52-1.1,4.28.23,3.92,2.95l-1.5,11.28-1.31,9.89-1.5,11.28c-.36,2.72-2.48,3.65-4.72,2.07l-9.3-6.58-8.14-5.75-9.29-6.58c-2.24-1.58-2-3.77.49-4.87Z" transform="translate(-398.86 -257.7)"/><circle class="b" cx="472.83" cy="234.21" r="19.44"/><circle class="a" cx="472.83" cy="234.21" r="9.33"/><path class="b" d="M1024.23,697l9.13-4,11.11-4.84c2.51-1.1,4.27.22,3.91,2.94l-1.49,11.29-1.31,9.88-1.5,11.29c-.36,2.72-2.49,3.65-4.73,2.06l-9.29-6.57-8.14-5.76-9.3-6.57c-2.24-1.58-2-3.78.5-4.87Z" transform="translate(-398.86 -257.7)"/><circle class="b" cx="630.22" cy="437.19" r="19.44"/><circle class="a" cx="630.22" cy="437.19" r="9.33"/><path class="b" d="M751.55,532.37l9.14-4,11.1-4.85c2.52-1.09,4.28.23,3.92,3l-1.5,11.29-1.31,9.88-1.5,11.29c-.36,2.71-2.48,3.64-4.72,2.06l-9.3-6.57-8.14-5.76L740,542.1c-2.24-1.59-2-3.78.5-4.88Z" transform="translate(-398.86 -257.7)"/><circle class="b" cx="357.55" cy="272.56" r="19.44"/><circle class="a" cx="357.55" cy="272.56" r="9.33"/><path class="b" d="M751.55,532.37l9.14-4,11.1-4.85c2.52-1.09,4.28.23,3.92,3l-1.5,11.29-1.31,9.88-1.5,11.29c-.36,2.71-2.48,3.64-4.72,2.06l-9.3-6.57-8.14-5.76L740,542.1c-2.24-1.59-2-3.78.5-4.88Z" transform="translate(-398.86 -257.7)"/><circle class="b" cx="357.55" cy="272.56" r="19.44"/><circle class="a" cx="357.55" cy="272.56" r="9.33"/><path class="b" d="M751.55,532.37l9.14-4,11.1-4.85c2.52-1.09,4.28.23,3.92,3l-1.5,11.29-1.31,9.88-1.5,11.29c-.36,2.71-2.48,3.64-4.72,2.06l-9.3-6.57-8.14-5.76L740,542.1c-2.24-1.59-2-3.78.5-4.88Z" transform="translate(-398.86 -257.7)"/><circle class="b" cx="357.55" cy="272.56" r="19.44"/><circle class="a" cx="357.55" cy="272.56" r="9.33"/><path class="b" d="M582.14,586.72l9.14-4,11.1-4.85c2.51-1.09,4.28.23,3.92,3l-1.5,11.29L603.49,602,602,613.28c-.36,2.72-2.48,3.64-4.72,2.06l-9.3-6.57L579.83,603l-9.29-6.57c-2.24-1.58-2-3.78.49-4.88Z" transform="translate(-398.86 -257.7)"/><circle class="b" cx="188.13" cy="326.9" r="19.44"/><circle class="a" cx="188.13" cy="326.9" r="9.33"/><path class="b" d="M928.18,554.54l9.14-4,11.1-4.85c2.52-1.1,4.28.23,3.92,2.94l-1.5,11.29-1.31,9.88L948,581.1c-.36,2.72-2.49,3.65-4.73,2.06L934,576.59l-8.15-5.76-9.29-6.57c-2.24-1.58-2-3.78.5-4.87Z" transform="translate(-398.86 -257.7)"/><circle class="b" cx="534.18" cy="294.72" r="19.44"/><circle class="a" cx="534.18" cy="294.72" r="9.33"/><path class="b" d="M739.69,450.26l9.14-4,11.11-4.84c2.51-1.1,4.27.22,3.91,2.94l-1.49,11.29L761,465.53l-1.49,11.29c-.36,2.72-2.49,3.64-4.73,2.06l-9.29-6.57-8.14-5.76-9.3-6.57c-2.24-1.58-2-3.78.5-4.88Z" transform="translate(-398.86 -257.7)"/><circle class="b" cx="345.69" cy="190.44" r="19.44"/><circle class="a" cx="345.69" cy="190.44" r="9.33"/></svg>