<svg xmlns="http://www.w3.org/2000/svg" viewBox="0 0 872.6 244.55"><defs><style>.a{font-size:217.09px;fill:#293347;font-family:Roboto-Black, Roboto;}.b,.d{fill:#00ce00;}.c{fill:none;}.c,.d{stroke:#00ce00;stroke-miterlimit:10;stroke-width:1.35px;}</style></defs><title>Logo</title><text class="a" transform="translate(300.54 185.72)">Labs</text><path class="b" d="M550.11,451.72S827.32,502.25,804.84,422c0,0-3.75-14.86-18.73,0,0,0-3.75,5.95,3.75,5.95,0,0,1.87-4.46,5.61-4.46s3.75,3,0,11.89S780.49,468.07,550.11,451.72Z" transform="translate(-540.4 -386.13)"/><path class="c" d="M550.11,451.72S827.32,502.25,804.84,422c0,0-3.75-14.86-18.73,0,0,0-3.75,5.95,3.75,5.95,0,0,1.87-4.46,5.61-4.46s3.75,3,0,11.89S780.49,468.07,550.11,451.72Z" transform="translate(-540.4 -386.13)"/><path class="b" d="M643,572.1S800.3,578,789.07,551.29c0,0-3.75-11.89-22.48,3S680.43,569.12,643,572.1Z" transform="translate(-540.4 -386.13)"/><path class="c" d="M643,572.1S800.3,578,789.07,551.29c0,0-3.75-11.89-22.48,3S680.43,569.12,643,572.1Z" transform="translate(-540.4 -386.13)"/><path class="d" d="M540.5,515.55s232.35,35.25,275.61-16c0,0-1.6-9.61-11.22-4.81C804.89,494.71,707.15,531.57,540.5,515.55Z" transform="translate(-540.4 -386.13)"/></svg>